<svg width="160" height="29" viewBox="0 0 160 29" fill="none" xmlns="http://www.w3.org/2000/svg">
<path d="M139.232 22.8132L138.965 23.9611L139.976 23.355L145.162 20.2453L150.348 23.3965L151.361 24.012L151.095 22.8569L149.737 16.9651L154.304 13.038L155.203 12.2653L154.023 12.1608L148.011 11.6287L145.623 6.06079L145.165 4.99352L144.705 6.05956L142.316 11.5857L136.304 12.1179L135.132 12.2216L136.021 12.9934L140.59 16.9631L139.232 22.8132ZM145.42 23.2705L145.163 23.1167L144.907 23.2705L137.734 27.5665L137.734 27.5664L137.723 27.5729C137.49 27.7203 137.266 27.7738 137.038 27.7549C136.783 27.7338 136.573 27.6519 136.395 27.514C136.199 27.362 136.046 27.1735 135.935 26.9425C135.847 26.7583 135.82 26.54 135.885 26.2618C135.885 26.2616 135.885 26.2614 135.885 26.2612L137.786 18.1428L137.855 17.8473L137.625 17.6495L131.277 12.1972C131.058 12.0001 130.942 11.7968 130.897 11.5856L130.896 11.5836C130.844 11.3475 130.859 11.1226 130.942 10.8974L130.474 10.7266L130.942 10.8974C131.031 10.6538 131.158 10.4694 131.319 10.3297C131.454 10.2119 131.667 10.1115 131.999 10.0627L140.367 9.33359L140.667 9.30748L140.784 9.03058L144.025 1.38377L144.026 1.38193C144.13 1.13275 144.282 0.963653 144.482 0.850336L144.483 0.849931C144.717 0.716755 144.942 0.657635 145.163 0.657635C145.385 0.657635 145.611 0.71674 145.846 0.850163C146.045 0.963297 146.197 1.13235 146.301 1.38193L146.302 1.38377L149.543 9.03058L149.66 9.30748L149.96 9.33359L158.328 10.0627C158.66 10.1115 158.873 10.2119 159.008 10.3297C159.169 10.4694 159.296 10.6538 159.385 10.8974C159.468 11.123 159.483 11.3483 159.432 11.5845C159.386 11.7963 159.269 12 159.05 12.1972L152.702 17.6495L152.472 17.8473L152.541 18.1428L154.442 26.2612C154.442 26.2616 154.442 26.2619 154.442 26.2622C154.507 26.54 154.48 26.7582 154.392 26.9423C154.281 27.1734 154.128 27.3619 153.932 27.514C153.754 27.6519 153.544 27.7338 153.289 27.7549C153.061 27.7738 152.837 27.7203 152.604 27.5729L152.604 27.5728L152.593 27.5665L145.42 23.2705Z" fill="#C6F608" stroke="#C6F608"/>
<path d="M15.9358 23.5213L15.6814 23.3709L15.427 23.5213L8.08072 27.8633L8.08064 27.8631L8.07032 27.8696C7.82956 28.0199 7.59643 28.0754 7.35802 28.0559C7.09301 28.0342 6.8758 27.9502 6.69125 27.8094L6.38793 28.2069L6.69125 27.8094C6.48857 27.6547 6.33195 27.4634 6.21825 27.2297C6.12795 27.0432 6.10046 26.8227 6.16645 26.5417C6.16649 26.5415 6.16653 26.5413 6.16658 26.5411L8.11355 18.3357L8.18437 18.0373L7.95036 17.8389L1.44904 12.328C1.22325 12.1276 1.10455 11.9212 1.05773 11.7078L1.05729 11.7058C1.00395 11.4674 1.01931 11.2403 1.10368 11.0127C1.19497 10.7664 1.32575 10.5791 1.49159 10.4367C1.63246 10.3158 1.85371 10.2133 2.19624 10.1636L10.7677 9.42661L11.0661 9.40096L11.1843 9.12575L14.5034 1.39702L14.5042 1.39516C14.6112 1.14316 14.7674 0.970605 14.975 0.854488L14.9757 0.854091C15.2172 0.718416 15.4504 0.657639 15.6814 0.657639C15.9123 0.657639 16.1463 0.718403 16.3893 0.85433C16.5955 0.970259 16.7514 1.14276 16.8586 1.39516L16.8594 1.39702L20.1784 9.12575L20.2966 9.40096L20.595 9.42661L29.1665 10.1636C29.509 10.2133 29.7303 10.3158 29.8712 10.4367C30.037 10.5791 30.1678 10.7664 30.2591 11.0127C30.3436 11.2408 30.3594 11.4683 30.307 11.7069C30.2591 11.9209 30.1395 12.1276 29.9137 12.328L23.4124 17.8389L23.1784 18.0373L23.2492 18.3357L25.1962 26.5411C25.2623 26.8224 25.2348 27.0431 25.1445 27.2297C25.0308 27.4634 24.8742 27.6547 24.6715 27.8094C24.4869 27.9502 24.2697 28.0342 24.0047 28.0559C23.7663 28.0754 23.5332 28.0199 23.2924 27.8696L23.2925 27.8695L23.282 27.8633L15.9358 23.5213Z" fill="#C6F608" stroke="#C6F608"/>
<path d="M80.8556 23.5213L80.6012 23.3709L80.3468 23.5213L73.0006 27.8633L73.0005 27.8631L72.9902 27.8696C72.7494 28.0199 72.5163 28.0754 72.2779 28.0559C72.0129 28.0342 71.7957 27.9502 71.6111 27.8094L71.3078 28.2069L71.6111 27.8094C71.4084 27.6547 71.2518 27.4634 71.1381 27.2297C71.0478 27.0432 71.0203 26.8227 71.0863 26.5417C71.0864 26.5415 71.0864 26.5413 71.0864 26.5411L73.0334 18.3357L73.1042 18.0372L72.8702 17.8389L66.3689 12.328C66.1431 12.1276 66.0244 11.9212 65.9776 11.7078L65.9771 11.7058C65.9238 11.4674 65.9392 11.2403 66.0235 11.0127C66.1148 10.7664 66.2456 10.5791 66.4115 10.4367C66.5523 10.3158 66.7736 10.2133 67.1161 10.1635L75.6876 9.42661L75.986 9.40095L76.1042 9.12575L79.4232 1.39701L79.424 1.39516C79.5311 1.14315 79.6873 0.970601 79.8948 0.854485L79.8955 0.854087C80.1371 0.718412 80.3703 0.657635 80.6012 0.657635C80.8322 0.657635 81.0661 0.7184 81.3091 0.854326C81.5153 0.970255 81.6712 1.14276 81.7784 1.39516L81.7792 1.39701L85.0983 9.12575L85.2165 9.40095L85.5149 9.42661L94.0864 10.1635C94.4289 10.2133 94.6501 10.3158 94.791 10.4367C94.9569 10.5791 95.0876 10.7664 95.1789 11.0127C95.2635 11.2408 95.2793 11.4683 95.2268 11.7069C95.179 11.9209 95.0594 12.1276 94.8336 12.328L88.3322 17.8389L88.0982 18.0372L88.1691 18.3357L90.116 26.5411C90.1822 26.8224 90.1547 27.0431 90.0643 27.2297C89.9506 27.4634 89.794 27.6547 89.5914 27.8094C89.4068 27.9502 89.1896 28.0342 88.9246 28.0559C88.6862 28.0754 88.4531 28.0199 88.2123 27.8696L88.2124 27.8695L88.2019 27.8633L80.8556 23.5213Z" fill="#C6F608" stroke="#C6F608"/>
<path d="M113.316 23.5213L113.061 23.3709L112.807 23.5213L105.46 27.8633L105.46 27.8631L105.45 27.8696C105.209 28.0199 104.976 28.0754 104.738 28.0559C104.473 28.0342 104.256 27.9502 104.071 27.8094L103.768 28.2069L104.071 27.8094C103.868 27.6547 103.712 27.4634 103.598 27.2297C103.508 27.0432 103.48 26.8227 103.546 26.5417C103.546 26.5415 103.546 26.5413 103.546 26.5411L105.493 18.3357L105.564 18.0372L105.33 17.8389L98.8288 12.328C98.603 12.1276 98.4843 11.9212 98.4375 11.7078L98.437 11.7058C98.3837 11.4674 98.399 11.2403 98.4834 11.0127C98.5747 10.7664 98.7055 10.5791 98.8713 10.4367C99.0122 10.3158 99.2334 10.2133 99.576 10.1635L108.147 9.42661L108.446 9.40095L108.564 9.12575L111.883 1.39701L111.884 1.39516C111.991 1.14315 112.147 0.970601 112.355 0.854485L112.355 0.854087C112.597 0.718412 112.83 0.657635 113.061 0.657635C113.292 0.657635 113.526 0.7184 113.769 0.854326C113.975 0.970255 114.131 1.14276 114.238 1.39516L114.239 1.39701L117.558 9.12575L117.676 9.40095L117.975 9.42661L126.546 10.1635C126.889 10.2133 127.11 10.3158 127.251 10.4367C127.417 10.5791 127.548 10.7664 127.639 11.0127C127.723 11.2408 127.739 11.4683 127.687 11.7069C127.639 11.9209 127.519 12.1276 127.293 12.328L120.792 17.8389L120.558 18.0372L120.629 18.3357L122.576 26.5411C122.642 26.8224 122.615 27.0431 122.524 27.2297C122.411 27.4634 122.254 27.6547 122.051 27.8094C121.867 27.9502 121.649 28.0342 121.384 28.0559C121.146 28.0754 120.913 28.0199 120.672 27.8696L120.672 27.8695L120.662 27.8633L113.316 23.5213Z" fill="#C6F608" stroke="#C6F608"/>
<path d="M48.3957 23.5213L48.1413 23.3709L47.8869 23.5213L40.5406 27.8633L40.5405 27.8631L40.5302 27.8696C40.2895 28.0199 40.0563 28.0754 39.8179 28.0559C39.5529 28.0342 39.3357 27.9502 39.1512 27.8094L38.8478 28.2069L39.1512 27.8094C38.9485 27.6547 38.7919 27.4634 38.6782 27.2297C38.5879 27.0432 38.5604 26.8227 38.6264 26.5417C38.6264 26.5415 38.6264 26.5413 38.6265 26.5411L40.5734 18.3357L40.6443 18.0372L40.4103 17.8389L33.9089 12.328C33.6831 12.1276 33.5644 11.9212 33.5176 11.7078L33.5172 11.7058C33.4638 11.4674 33.4792 11.2403 33.5636 11.0127C33.6549 10.7664 33.7857 10.5791 33.9515 10.4367C34.0924 10.3158 34.3136 10.2133 34.6561 10.1635L43.2276 9.42661L43.526 9.40095L43.6442 9.12575L46.9633 1.39701L46.9641 1.39516C47.0711 1.14315 47.2273 0.970601 47.4349 0.854485L47.4356 0.854087C47.6771 0.718412 47.9103 0.657635 48.1413 0.657635C48.3722 0.657635 48.6062 0.7184 48.8492 0.854326C49.0554 0.970255 49.2113 1.14276 49.3185 1.39516L49.3193 1.39701L52.6383 9.12575L52.7565 9.40095L53.0549 9.42661L61.6264 10.1635C61.9689 10.2133 62.1902 10.3158 62.3311 10.4367C62.4969 10.5791 62.6277 10.7664 62.719 11.0127C62.8035 11.2408 62.8193 11.4683 62.7669 11.7069C62.719 11.9209 62.5994 12.1276 62.3736 12.328L55.8723 17.8389L55.6383 18.0372L55.7091 18.3357L57.6561 26.5411C57.7222 26.8224 57.6947 27.0431 57.6044 27.2297C57.4907 27.4634 57.3341 27.6547 57.1314 27.8094C56.9468 27.9502 56.7296 28.0342 56.4646 28.0559C56.2262 28.0754 55.9931 28.0199 55.7523 27.8696L55.7524 27.8695L55.7419 27.8633L48.3957 23.5213Z" fill="#C6F608" stroke="#C6F608"/>
</svg>
