<svg width="42" height="40" viewBox="0 0 42 40" fill="none" xmlns="http://www.w3.org/2000/svg">
<path fill-rule="evenodd" clip-rule="evenodd" d="M28.2497 10.2113C28.7014 10.2113 29.1346 10.3851 29.4541 10.6944C29.7735 11.0038 29.9529 11.4233 29.9529 11.8608V15.1599H31.6562C33.0113 15.1599 34.311 15.6812 35.2693 16.6093C36.2275 17.5373 36.7659 18.796 36.7659 20.1084V33.3046C37.2176 33.3046 37.6508 33.4784 37.9702 33.7877C38.2897 34.0971 38.4691 34.5166 38.4691 34.9541C38.4691 35.3916 38.2897 35.8112 37.9702 36.1205C37.6508 36.4298 37.2176 36.6036 36.7659 36.6036H6.1076C5.65587 36.6036 5.22264 36.4298 4.90322 36.1205C4.58381 35.8112 4.40436 35.3916 4.40436 34.9541C4.40436 34.5166 4.58381 34.0971 4.90322 33.7877C5.22264 33.4784 5.65587 33.3046 6.1076 33.3046V20.1084C6.1076 18.796 6.64594 17.5373 7.6042 16.6093C8.56245 15.6812 9.86213 15.1599 11.2173 15.1599H12.9205V11.8608C12.9205 11.4233 13.1 11.0038 13.4194 10.6944C13.7388 10.3851 14.1721 10.2113 14.6238 10.2113C15.0755 10.2113 15.5087 10.3851 15.8282 10.6944C16.1476 11.0038 16.327 11.4233 16.327 11.8608V15.1599H19.7335V11.8608C19.7335 11.4233 19.9129 11.0038 20.2324 10.6944C20.5518 10.3851 20.985 10.2113 21.4367 10.2113C21.8885 10.2113 22.3217 10.3851 22.6411 10.6944C22.9605 11.0038 23.14 11.4233 23.14 11.8608V15.1599H26.5464V11.8608C26.5464 11.4233 26.7259 11.0038 27.0453 10.6944C27.3647 10.3851 27.798 10.2113 28.2497 10.2113ZM31.1571 26.2232C30.7753 26.593 30.322 26.8863 29.8232 27.0864C29.3243 27.2866 28.7896 27.3896 28.2497 27.3896C27.7097 27.3896 27.175 27.2866 26.6762 27.0864C26.1773 26.8863 25.7241 26.593 25.3423 26.2232C25.2768 26.1597 25.199 26.1092 25.1133 26.0749C25.0277 26.0405 24.9359 26.0228 24.8432 26.0228C24.7505 26.0228 24.6587 26.0405 24.5731 26.0749C24.4874 26.1092 24.4097 26.1597 24.3442 26.2232C23.9624 26.593 23.5091 26.8863 23.0102 27.0864C22.5114 27.2866 21.9767 27.3896 21.4367 27.3896C20.8968 27.3896 20.3621 27.2866 19.8632 27.0864C19.3644 26.8863 18.9111 26.593 18.5293 26.2232C18.4638 26.1597 18.386 26.1092 18.3004 26.0749C18.2148 26.0405 18.123 26.0228 18.0303 26.0228C17.9376 26.0228 17.8458 26.0405 17.7601 26.0749C17.6745 26.1092 17.5967 26.1597 17.5312 26.2232C17.1494 26.593 16.6961 26.8863 16.1973 27.0864C15.6984 27.2866 15.1637 27.3896 14.6238 27.3896C14.0838 27.3896 13.5491 27.2866 13.0503 27.0864C12.5514 26.8863 12.0982 26.593 11.7164 26.2232C11.6509 26.1597 11.5731 26.1092 11.4874 26.0749C11.4018 26.0405 11.31 26.0228 11.2173 26.0228C11.1246 26.0228 11.0328 26.0405 10.9472 26.0749C10.8615 26.1092 10.7838 26.1597 10.7183 26.2232L9.51407 27.3894V33.3046H33.3594V27.3894L32.1552 26.2232C32.0897 26.1597 32.0119 26.1092 31.9263 26.0749C31.8407 26.0405 31.7489 26.0228 31.6562 26.0228C31.5635 26.0228 31.4717 26.0405 31.386 26.0749C31.3004 26.1092 31.2226 26.1597 31.1571 26.2232ZM31.6562 18.4589H11.2173C10.8001 18.459 10.3975 18.6073 10.0857 18.8758C9.77397 19.1442 9.5748 19.5142 9.52599 19.9154L9.51407 20.1084V23.0809C10.2762 22.7451 11.126 22.6426 11.9499 22.787C12.7737 22.9315 13.5325 23.316 14.1247 23.8891C14.1902 23.9527 14.268 24.0031 14.3537 24.0375C14.4393 24.0719 14.5311 24.0896 14.6238 24.0896C14.7165 24.0896 14.8083 24.0719 14.8939 24.0375C14.9795 24.0031 15.0573 23.9527 15.1228 23.8891C15.5046 23.5193 15.9579 23.226 16.4568 23.0259C16.9556 22.8258 17.4903 22.7228 18.0303 22.7228C18.5702 22.7228 19.1049 22.8258 19.6038 23.0259C20.1026 23.226 20.5559 23.5193 20.9377 23.8891C21.0032 23.9527 21.081 24.0031 21.1666 24.0375C21.2522 24.0719 21.344 24.0896 21.4367 24.0896C21.5294 24.0896 21.6212 24.0719 21.7069 24.0375C21.7925 24.0031 21.8703 23.9527 21.9358 23.8891C22.3176 23.5193 22.7709 23.226 23.2697 23.0259C23.7686 22.8258 24.3032 22.7228 24.8432 22.7228C25.3832 22.7228 25.9178 22.8258 26.4167 23.0259C26.9156 23.226 27.3688 23.5193 27.7506 23.8891C27.8161 23.9527 27.8939 24.0031 27.9795 24.0375C28.0652 24.0719 28.157 24.0896 28.2497 24.0896C28.3424 24.0896 28.4342 24.0719 28.5198 24.0375C28.6054 24.0031 28.6832 23.9527 28.7487 23.8891C29.3034 23.352 30.005 22.9797 30.7709 22.816C31.5368 22.6524 32.335 22.7042 33.0715 22.9654L33.3594 23.0809V20.1084C33.3593 19.7044 33.2062 19.3144 32.929 19.0125C32.6517 18.7106 32.2698 18.5177 31.8554 18.4704L31.6562 18.4589ZM22.2884 3.6132C21.8625 4.43962 22.0754 5.03674 22.3974 5.54315L22.5779 5.81037L22.6716 5.93903C22.9168 6.27388 23.14 6.58234 23.14 6.91225C23.14 7.34973 22.9605 7.76929 22.6411 8.07864C22.3217 8.38798 21.8885 8.56177 21.4367 8.56177C20.985 8.56177 20.5518 8.38798 20.2324 8.07864C19.9129 7.76929 19.7335 7.34973 19.7335 6.91225C19.7335 6.00171 20.5851 4.43797 22.2884 3.6132ZM15.4754 3.6132C15.0496 4.43962 15.2625 5.03674 15.5844 5.54315L15.765 5.81037L15.8586 5.93903C16.1039 6.27388 16.327 6.58234 16.327 6.91225C16.327 7.34973 16.1476 7.76929 15.8282 8.07864C15.5087 8.38798 15.0755 8.56177 14.6238 8.56177C14.1721 8.56177 13.7388 8.38798 13.4194 8.07864C13.1 7.76929 12.9205 7.34973 12.9205 6.91225C12.9205 6.00171 13.7722 4.43797 15.4754 3.6132ZM29.1013 3.6132C28.6755 4.43962 28.8884 5.03674 29.2103 5.54315L29.3909 5.81037L29.4845 5.93903C29.7298 6.27388 29.9529 6.58234 29.9529 6.91225C29.9529 7.34973 29.7735 7.76929 29.4541 8.07864C29.1346 8.38798 28.7014 8.56177 28.2497 8.56177C27.798 8.56177 27.3647 8.38798 27.0453 8.07864C26.7259 7.76929 26.5464 7.34973 26.5464 6.91225C26.5464 6.00171 27.3981 4.43797 29.1013 3.6132Z" fill="#5F30F9"/>
</svg>
