<svg width="23" height="30" viewBox="0 0 23 30" fill="none" xmlns="http://www.w3.org/2000/svg">
<path d="M2.875 30C2.08437 30 1.40779 29.7205 0.84525 29.1614C0.28175 28.6014 0 27.9286 0 27.1429V12.8571C0 12.0714 0.28175 11.3986 0.84525 10.8386C1.40779 10.2795 2.08437 10 2.875 10H4.3125V7.14286C4.3125 5.16667 5.01352 3.4819 6.41556 2.08857C7.81665 0.69619 9.51146 0 11.5 0C13.4885 0 15.1838 0.69619 16.5859 2.08857C17.987 3.4819 18.6875 5.16667 18.6875 7.14286V10H20.125C20.9156 10 21.5927 10.2795 22.1562 10.8386C22.7187 11.3986 23 12.0714 23 12.8571V27.1429C23 27.9286 22.7187 28.6014 22.1562 29.1614C21.5927 29.7205 20.9156 30 20.125 30H2.875ZM2.875 27.1429H20.125V12.8571H2.875V27.1429ZM11.5 22.8571C12.2906 22.8571 12.9677 22.5776 13.5312 22.0186C14.0937 21.4586 14.375 20.7857 14.375 20C14.375 19.2143 14.0937 18.5414 13.5312 17.9814C12.9677 17.4224 12.2906 17.1429 11.5 17.1429C10.7094 17.1429 10.0328 17.4224 9.47025 17.9814C8.90675 18.5414 8.625 19.2143 8.625 20C8.625 20.7857 8.90675 21.4586 9.47025 22.0186C10.0328 22.5776 10.7094 22.8571 11.5 22.8571ZM7.1875 10H15.8125V7.14286C15.8125 5.95238 15.3932 4.94048 14.5547 4.10714C13.7161 3.27381 12.6979 2.85714 11.5 2.85714C10.3021 2.85714 9.28385 3.27381 8.44531 4.10714C7.60677 4.94048 7.1875 5.95238 7.1875 7.14286V10ZM2.875 27.1429V12.8571V27.1429Z" fill="#29374C"/>
</svg>
