<svg width="30" height="32" viewBox="0 0 30 32" fill="none" xmlns="http://www.w3.org/2000/svg">
<path fill-rule="evenodd" clip-rule="evenodd" d="M23.9765 3.76267H5.72756C5.24357 3.76267 4.7794 3.94887 4.43716 4.28031C4.09493 4.61176 3.90266 5.06129 3.90266 5.53001V26.7381C3.90266 27.2069 4.09493 27.6564 4.43716 27.9879C4.7794 28.3193 5.24357 28.5055 5.72756 28.5055H23.9765C24.4605 28.5055 24.9247 28.3193 25.2669 27.9879C25.6092 27.6564 25.8014 27.2069 25.8014 26.7381V5.53001C25.8014 5.06129 25.6092 4.61176 25.2669 4.28031C24.9247 3.94887 24.4605 3.76267 23.9765 3.76267ZM5.72756 0.227982C4.27558 0.227982 2.88307 0.786587 1.85637 1.78091C0.829665 2.77524 0.252869 4.12383 0.252869 5.53001V26.7381C0.252869 28.1443 0.829665 29.4929 1.85637 30.4873C2.88307 31.4816 4.27558 32.0402 5.72756 32.0402H23.9765C25.4285 32.0402 26.821 31.4816 27.8477 30.4873C28.8744 29.4929 29.4512 28.1443 29.4512 26.7381V5.53001C29.4512 4.12383 28.8744 2.77524 27.8477 1.78091C26.821 0.786587 25.4285 0.227982 23.9765 0.227982H5.72756Z" fill="#5F30F9"/>
<path d="M7.55246 7.29736H22.1516V10.8321H7.55246V7.29736ZM7.55246 14.3667H22.1516V17.9014H7.55246V14.3667ZM7.55246 21.4361H16.6769V24.9708H7.55246V21.4361Z" fill="#5F30F9"/>
</svg>
