<svg width="27" height="25" viewBox="0 0 27 25" fill="none" xmlns="http://www.w3.org/2000/svg">
<path d="M24.2283 4.97905H19.2717C19.0372 3.5854 18.3307 2.32156 17.2767 1.41057C16.2228 0.499579 14.8892 0 13.5113 0C12.1334 0 10.7998 0.499579 9.74583 1.41057C8.69187 2.32156 7.98532 3.5854 7.75086 4.97905H2.79423C2.27744 4.97905 1.78182 5.18976 1.41639 5.56483C1.05097 5.93991 0.845673 6.44861 0.845673 6.97905V22.979C0.845673 23.5095 1.05097 24.0182 1.41639 24.3933C1.78182 24.7683 2.27744 24.979 2.79423 24.979H24.2283C24.7451 24.979 25.2407 24.7683 25.6061 24.3933C25.9716 24.0182 26.1769 23.5095 26.1769 22.979V6.97905C26.1769 6.44861 25.9716 5.93991 25.6061 5.56483C25.2407 5.18976 24.7451 4.97905 24.2283 4.97905ZM13.5113 1.97905C14.375 1.98074 15.214 2.27602 15.897 2.81876C16.58 3.36151 17.0686 4.12115 17.2866 4.97905H9.73595C9.95391 4.12115 10.4426 3.36151 11.1256 2.81876C11.8086 2.27602 12.6475 1.98074 13.5113 1.97905ZM24.2283 22.979H2.79423V6.97905H24.2283V22.979Z" fill="#5f30f9"/>
</svg>
