<svg width="35" height="35" viewBox="0 0 35 35" fill="none" xmlns="http://www.w3.org/2000/svg">
<path d="M29.1666 11.6667V8.75C29.1666 6.34375 27.1979 4.375 24.7916 4.375H10.2083C7.80206 4.375 5.83331 6.34375 5.83331 8.75V11.6667C3.42706 11.6667 1.45831 13.6354 1.45831 16.0417V23.3333C1.45831 25.7396 3.42706 27.7083 5.83331 27.7083V29.1667C5.83331 29.9688 6.48956 30.625 7.29165 30.625C8.09373 30.625 8.74998 29.9688 8.74998 29.1667V27.7083H26.25V29.1667C26.25 29.9688 26.9062 30.625 27.7083 30.625C28.5104 30.625 29.1666 29.9688 29.1666 29.1667V27.7083C31.5729 27.7083 33.5416 25.7396 33.5416 23.3333V16.0417C33.5416 13.6354 31.5729 11.6667 29.1666 11.6667ZM8.74998 8.75C8.74998 7.94792 9.40623 7.29167 10.2083 7.29167H24.7916C25.5937 7.29167 26.25 7.94792 26.25 8.75V12.8042C25.3604 13.6062 24.7916 14.7583 24.7916 16.0417V18.9583H10.2083V16.0417C10.2083 14.7583 9.63956 13.6062 8.74998 12.8042V8.75ZM30.625 23.3333C30.625 24.1354 29.9687 24.7917 29.1666 24.7917H5.83331C5.03123 24.7917 4.37498 24.1354 4.37498 23.3333V16.0417C4.37498 15.2396 5.03123 14.5833 5.83331 14.5833C6.6354 14.5833 7.29165 15.2396 7.29165 16.0417V21.875H27.7083V16.0417C27.7083 15.2396 28.3646 14.5833 29.1666 14.5833C29.9687 14.5833 30.625 15.2396 30.625 16.0417V23.3333Z" fill="#29374C"/>
</svg>
