<svg width="31" height="31" viewBox="0 0 31 31" fill="none" xmlns="http://www.w3.org/2000/svg">
<path d="M15.5 0C12.4344 0 9.43763 0.909059 6.88867 2.61222C4.33971 4.31538 2.35303 6.73615 1.17987 9.56841C0.00671589 12.4007 -0.300236 15.5172 0.297835 18.5239C0.895906 21.5306 2.37214 24.2924 4.53985 26.4601C6.70756 28.6279 9.4694 30.1041 12.4761 30.7022C15.4828 31.3002 18.5993 30.9933 21.4316 29.8201C24.2639 28.647 26.6846 26.6603 28.3878 24.1113C30.0909 21.5624 31 18.5656 31 15.5C30.9953 11.3906 29.3608 7.45082 26.455 4.54502C23.5492 1.63922 19.6094 0.00468844 15.5 0ZM8.85715 26.9888V25.4643C8.85803 24.5837 9.20825 23.7393 9.83094 23.1166C10.4536 22.4939 11.2979 22.1437 12.1786 22.1429H18.8214C19.7021 22.1437 20.5464 22.4939 21.1691 23.1166C21.7918 23.7393 22.142 24.5837 22.1429 25.4643V26.9888C20.1269 28.1659 17.8344 28.7862 15.5 28.7862C13.1656 28.7862 10.8731 28.1659 8.85715 26.9888ZM24.3483 25.3824C24.3262 23.9301 23.7346 22.5447 22.7008 21.5246C21.667 20.5045 20.2738 19.9313 18.8214 19.9286H12.1786C10.7262 19.9313 9.33304 20.5045 8.29925 21.5246C7.26545 22.5447 6.67379 23.9301 6.65172 25.3824C4.64399 23.5896 3.22814 21.2293 2.59164 18.614C1.95515 15.9987 2.12805 13.2518 3.08743 10.7369C4.04681 8.22206 5.74743 6.05792 7.9641 4.53105C10.1808 3.00419 12.8089 2.18664 15.5006 2.18664C18.1922 2.18664 20.8204 3.00419 23.037 4.53105C25.2537 6.05792 26.9543 8.22206 27.9137 10.7369C28.8731 13.2518 29.046 15.9987 28.4095 18.614C27.773 21.2293 26.3571 23.5896 24.3494 25.3824H24.3483Z" fill="#29374C"/>
<ellipse cx="15.4999" cy="15.5596" rx="13.2346" ry="13.2942" fill="white"/>
<path d="M15.4551 24.8894C15.1717 24.8894 14.9341 24.7876 14.742 24.584C14.5507 24.381 14.455 24.1293 14.455 23.8288V22.609C13.705 22.4322 13.0466 22.1229 12.4799 21.6809C11.9132 21.239 11.4549 20.6203 11.1049 19.8248C10.9882 19.5773 10.9839 19.3167 11.0919 19.0431C11.2005 18.7687 11.3965 18.5697 11.6799 18.4459C11.9132 18.3399 12.1549 18.3445 12.4049 18.4597C12.6549 18.5743 12.8466 18.7641 12.98 19.0293C13.2633 19.5596 13.6217 19.962 14.055 20.2363C14.4884 20.51 15.0217 20.6468 15.6551 20.6468C16.3385 20.6468 16.9178 20.4835 17.3932 20.1568C17.8679 19.8294 18.1052 19.321 18.1052 18.6315C18.1052 18.0128 17.9219 17.5221 17.5552 17.1594C17.1885 16.7973 16.3385 16.3865 15.0051 15.9269C13.5717 15.4496 12.5883 14.8796 12.0549 14.2171C11.5215 13.5538 11.2549 12.7449 11.2549 11.7903C11.2549 10.6413 11.6049 9.74854 12.3049 9.11215C13.005 8.47576 13.7217 8.11336 14.455 8.02498V6.85825C14.455 6.55773 14.5507 6.30565 14.742 6.102C14.9341 5.89907 15.1717 5.7976 15.4551 5.7976C15.7384 5.7976 15.9761 5.89907 16.1681 6.102C16.3595 6.30565 16.4551 6.55773 16.4551 6.85825V8.02498C17.0885 8.13104 17.6385 8.34777 18.1052 8.67516C18.5719 9.00184 18.9553 9.40383 19.2553 9.88113C19.4053 10.1109 19.4346 10.3673 19.3433 10.6501C19.2513 10.9329 19.0636 11.1362 18.7803 11.26C18.5469 11.366 18.3052 11.3703 18.0552 11.2727C17.8052 11.1758 17.5719 11.0037 17.3552 10.7562C17.1385 10.5087 16.8845 10.3185 16.5931 10.1855C16.3011 10.0533 15.9384 9.98719 15.5051 9.98719C14.7717 9.98719 14.2134 10.1597 13.83 10.5048C13.4466 10.8492 13.255 11.2777 13.255 11.7903C13.255 12.3737 13.505 12.8333 14.005 13.1692C14.505 13.505 15.3717 13.8586 16.6051 14.2298C17.7552 14.5834 18.6262 15.1445 19.2183 15.9131C19.8096 16.6824 20.1053 17.5709 20.1053 18.5785C20.1053 19.8336 19.7553 20.7882 19.0553 21.4423C18.3552 22.0964 17.4885 22.5029 16.4551 22.662V23.8288C16.4551 24.1293 16.3595 24.381 16.1681 24.584C15.9761 24.7876 15.7384 24.8894 15.4551 24.8894Z" fill="#29374C"/>
</svg>
