<svg width="90" height="90" viewBox="0 0 90 90" fill="none" xmlns="http://www.w3.org/2000/svg">
<circle cx="45" cy="45" r="45" fill="#B5DF0F"/>
<path d="M54.7037 58.6495L46.2282 49.9494C45.9184 49.6315 45.5524 49.5737 45.3553 49.5737C45.1582 49.5737 44.7921 49.6315 44.4824 49.9494L35.9787 58.6784C35.0213 59.6611 33.5289 61.2508 28.545 61.2508L38.9916 71.9452C40.5755 73.5691 42.7225 74.4812 44.9611 74.4812C47.1996 74.4812 49.3467 73.5691 50.9305 71.9452L61.4053 61.2219C58.8429 61.2219 56.7029 60.7017 54.7037 58.6495ZM35.9787 32.4915L44.4824 41.2205C44.7076 41.4517 45.0455 41.5962 45.3553 41.5962C45.665 41.5962 46.0029 41.4517 46.2282 41.2205L54.6474 32.5782C56.6466 30.4393 58.9274 29.948 61.4898 29.948L51.015 19.2246C49.4311 17.6008 47.2841 16.6887 45.0455 16.6887C42.807 16.6887 40.6599 17.6008 39.076 19.2246L28.6295 29.9191C33.5853 29.9191 35.1058 31.5955 35.9787 32.4915Z" fill="#29374c"/>
<path d="M70.6411 39.3706L64.3056 32.8384H60.7577C59.2371 32.8384 57.7166 33.4742 56.6748 34.6015L48.2274 43.2726C47.439 44.0819 46.3971 44.4866 45.3553 44.4866C44.2824 44.4711 43.2556 44.0371 42.4832 43.2726L33.9795 34.5148C32.9095 33.4164 31.4452 32.7805 29.8966 32.7805H25.7573L19.3092 39.4284C17.7273 41.0543 16.8387 43.2582 16.8387 45.556C16.8387 47.8539 17.7273 50.0578 19.3092 51.6837L25.7573 58.3315H29.9247C31.4452 58.3315 32.9095 57.6957 34.0076 56.5973L42.5113 47.8683C43.2997 47.059 44.3416 46.6544 45.3834 46.6544C46.4253 46.6544 47.4671 47.059 48.2555 47.8683L56.7311 56.5684C57.8011 57.6667 59.2653 58.3026 60.814 58.3026H64.3619L70.6974 51.7704C72.286 50.1153 73.1718 47.882 73.1612 45.5586C73.1507 43.2351 72.2446 41.0105 70.6411 39.3706Z" fill="#29374c"/>
</svg>
