<svg width="90" height="90" viewBox="0 0 90 90" fill="none" xmlns="http://www.w3.org/2000/svg">
<circle cx="45" cy="45" r="45" fill="#B5DF0F"/>
<path d="M71 42.1111L65.2222 42.1111V36.3333H71V42.1111ZM65.2222 47.8889H50.7778L50.7778 42.1111H65.2222V47.8889ZM56.5556 24.7778H45L45 19H56.5556V24.7778ZM45 30.5556H39.2222V24.7778H45V30.5556ZM50.7778 65.2222H45V59.4444H50.7778V65.2222ZM45 71H39.2222V65.2222H45V71ZM24.7778 45H19L19 39.2222H24.7778V45ZM32 66.6667V58H23.3333L23.3333 66.6667H32ZM36.3333 71H19L19 53.6667H36.3333V71ZM66.6667 66.6667V58H58V66.6667L66.6667 66.6667ZM71 71L53.6667 71V53.6667L71 53.6667V71ZM32 32V23.3333H23.3333V32H32ZM36.3333 36.3333H19L19 19H36.3333L36.3333 36.3333ZM71 30.5556H62.3333V36.3333H56.5556V24.7778H65.2222V19H71V30.5556ZM50.7778 42.1111L45 42.1111V30.5556H50.7778V42.1111ZM50.7778 53.6667L45 53.6667V59.4444L39.2222 59.4444L39.2222 42.1111H45L45 47.8889L50.7778 47.8889V53.6667ZM36.3333 50.7778H24.7778L24.7778 45H30.5556V39.2222H36.3333L36.3333 50.7778ZM29.8333 64.5H25.5V60.1667H29.8333V64.5ZM64.5 64.5H60.1667V60.1667H64.5V64.5ZM29.8333 29.8333H25.5V25.5H29.8333V29.8333Z" fill="#29374c"/>
</svg>
