<svg width="90" height="90" viewBox="0 0 90 90" fill="none" xmlns="http://www.w3.org/2000/svg">
<circle cx="45" cy="45" r="45" fill="#B5DF0F"/>
<path d="M45.6643 33.7597C45.4104 34.0206 45.1089 34.2276 44.777 34.3688C44.4451 34.5101 44.0894 34.5828 43.7301 34.5828C43.3708 34.5828 43.0151 34.5101 42.6832 34.3688C42.3513 34.2276 42.0498 34.0206 41.7959 33.7597L36.7984 28.6326V55.6291C36.7984 56.3734 36.5103 57.0872 35.9976 57.6135C35.4849 58.1398 34.7896 58.4354 34.0645 58.4354C33.3394 58.4354 32.644 58.1398 32.1313 57.6135C31.6186 57.0872 31.3306 56.3734 31.3306 55.6291V28.6326L26.3331 33.7625C26.0793 34.0233 25.7779 34.2301 25.4462 34.3713C25.1145 34.5125 24.7589 34.5852 24.3998 34.5853C24.0408 34.5855 23.6852 34.513 23.3534 34.3721C23.0216 34.2311 22.72 34.0245 22.466 33.7639C22.212 33.5034 22.0105 33.194 21.873 32.8535C21.7354 32.513 21.6646 32.1481 21.6645 31.7795C21.6643 31.4109 21.7349 31.0458 21.8722 30.7053C22.0095 30.3647 22.2108 30.0552 22.4647 29.7944L32.1316 19.8714C32.6443 19.3453 33.3396 19.0497 34.0645 19.0497C34.7894 19.0497 35.4847 19.3453 35.9973 19.8714L45.6643 29.7944C46.1768 30.3207 46.4647 31.0343 46.4647 31.7785C46.4647 32.5226 46.1768 33.2363 45.6643 33.7625V33.7597ZM67.5353 55.0482C68.006 55.5315 68.2887 56.1744 68.3305 56.8564C68.3723 57.5384 68.1702 58.2126 67.7622 58.7525L67.5353 59.0163L57.8683 68.9394C57.3975 69.4226 56.7712 69.7128 56.1068 69.7557C55.4424 69.7986 54.7856 69.5911 54.2596 69.1723L54.0026 68.9394L44.3384 59.0163C43.8481 58.5113 43.5634 57.8337 43.5422 57.121C43.521 56.4084 43.7648 55.7141 44.2242 55.1794C44.6836 54.6446 45.3241 54.3093 46.0155 54.2417C46.707 54.1741 47.3976 54.3792 47.9471 54.8153L48.2041 55.0482L53.2016 60.1753V33.1788C53.2024 32.4635 53.4692 31.7756 53.9475 31.2555C54.4259 30.7354 55.0796 30.4224 55.7752 30.3805C56.4708 30.3385 57.1558 30.5709 57.6901 31.0299C58.2245 31.489 58.5679 32.1402 58.6502 32.8505L58.6693 33.1788V60.1781L63.6723 55.0482C64.185 54.5221 64.8802 54.2266 65.6052 54.2266C66.3301 54.2266 67.0226 54.5221 67.5353 55.0482Z" fill="#29374c"/>
</svg>
