<svg width="35" height="35" viewBox="0 0 35 35" fill="none" xmlns="http://www.w3.org/2000/svg">
<path d="M17.5 8.75C16.4184 8.75 15.3611 9.07074 14.4617 9.67165C13.5624 10.2726 12.8615 11.1267 12.4475 12.126C12.0336 13.1252 11.9253 14.2248 12.1363 15.2857C12.3473 16.3465 12.8682 17.3209 13.633 18.0857C14.3978 18.8506 15.3723 19.3714 16.4331 19.5824C17.4939 19.7934 18.5935 19.6851 19.5928 19.2712C20.5921 18.8573 21.4462 18.1564 22.0471 17.257C22.648 16.3577 22.9688 15.3004 22.9688 14.2188C22.9688 12.7683 22.3926 11.3773 21.367 10.3518C20.3414 9.32617 18.9504 8.75 17.5 8.75ZM17.5 17.5C16.851 17.5 16.2166 17.3076 15.677 16.947C15.1374 16.5865 14.7169 16.074 14.4685 15.4744C14.2202 14.8749 14.1552 14.2151 14.2818 13.5786C14.4084 12.9421 14.7209 12.3574 15.1798 11.8986C15.6387 11.4397 16.2234 11.1272 16.8599 11.0005C17.4964 10.8739 18.1561 10.9389 18.7557 11.1873C19.3553 11.4356 19.8677 11.8562 20.2283 12.3958C20.5888 12.9354 20.7813 13.5698 20.7813 14.2188C20.7804 15.0887 20.4344 15.9228 19.8192 16.538C19.2041 17.1532 18.37 17.4991 17.5 17.5Z" fill="#5f30f9"/>
<path d="M17.5 2.1875C14.4715 2.1875 11.511 3.08556 8.99284 4.76812C6.47471 6.45068 4.51207 8.84217 3.3531 11.6402C2.19413 14.4382 1.8909 17.517 2.48173 20.4873C3.07257 23.4577 4.53094 26.1861 6.67243 28.3276C8.81393 30.4691 11.5424 31.9274 14.5127 32.5183C17.483 33.1091 20.5619 32.8059 23.3598 31.6469C26.1578 30.4879 28.5493 28.5253 30.2319 26.0072C31.9144 23.489 32.8125 20.5285 32.8125 17.5C32.8079 13.4403 31.1931 9.54819 28.3225 6.67754C25.4518 3.8069 21.5597 2.19213 17.5 2.1875ZM10.9375 28.8498V27.3438C10.9384 26.4738 11.2844 25.6397 11.8995 25.0245C12.5147 24.4093 13.3488 24.0634 14.2188 24.0625H20.7813C21.6512 24.0634 22.4853 24.4093 23.1005 25.0245C23.7157 25.6397 24.0616 26.4738 24.0625 27.3438V28.8498C22.071 30.0127 19.8062 30.6255 17.5 30.6255C15.1938 30.6255 12.929 30.0127 10.9375 28.8498ZM26.2413 27.2628C26.2195 25.8282 25.6349 24.4595 24.6137 23.4517C23.5924 22.4439 22.2161 21.8777 20.7813 21.875H14.2188C12.784 21.8777 11.4076 22.4439 10.3864 23.4517C9.36507 24.4595 8.78055 25.8282 8.75876 27.2628C6.77531 25.4918 5.37659 23.16 4.74779 20.5764C4.119 17.9927 4.2898 15.279 5.23758 12.7945C6.18536 10.3101 7.8654 8.17214 10.0553 6.66374C12.2451 5.15535 14.8415 4.34768 17.5006 4.34768C20.1596 4.34768 22.756 5.15535 24.9459 6.66374C27.1357 8.17214 28.8158 10.3101 29.7635 12.7945C30.7113 15.279 30.8821 17.9927 30.2533 20.5764C29.6245 23.16 28.2258 25.4918 26.2423 27.2628H26.2413Z" fill="#5f30f9"/>
</svg>
